<svg width="52" height="51" viewBox="0 0 52 51" fill="none" xmlns="http://www.w3.org/2000/svg">
<g id="44085edc5de5fa82a08d0bc63c7dccc7.svg" clip-path="url(#clip0_1_12)">
<g id="change1_1">
<path id="Vector" d="M23.708 37.3823L20.481 34.9164C20.7022 33.5427 19.6509 32.1051 18.9753 31.3434C18.8356 31.186 18.5949 31.1716 18.4375 31.3115C18.2801 31.4508 18.2657 31.6915 18.4054 31.8493C18.8138 32.3094 19.6443 33.3569 19.7395 34.3496L17.4713 32.6169C17.5797 31.9423 17.3931 31.1791 16.9136 30.3434C16.809 30.161 16.5761 30.0974 16.3935 30.2025C16.2111 30.3071 16.1477 30.5398 16.2526 30.7224C16.5113 31.1733 16.7827 31.8024 16.7308 32.3916C16.701 32.413 16.6728 32.4374 16.6495 32.4678C16.5217 32.6355 16.5536 32.8746 16.721 33.0021L18.003 33.9819C17.2486 34.1068 16.2099 33.8614 15.0831 33.2731C14.8965 33.1756 14.6666 33.2477 14.569 33.4345C14.4717 33.6213 14.544 33.8512 14.7306 33.9488C15.5 34.3503 17.3677 35.1731 18.7477 34.5508L21.0126 36.2814C20.2582 36.4063 19.2194 36.161 18.0927 35.5727C17.9061 35.4751 17.6762 35.5477 17.5786 35.734C17.4813 35.9208 17.5536 36.1507 17.7402 36.2483C18.5096 36.6498 20.377 37.4726 21.7572 36.851L23.2452 37.9875C20.7845 38.4951 17.9395 37.8274 15.7965 36.1966C13.6274 34.546 12.4571 32.0991 12.4823 29.284C15.1921 28.52 17.8605 29.0065 20.0228 30.6657C22.1594 32.3046 23.551 34.8747 23.708 37.3823ZM11.9943 28.634L11.7367 28.7141L11.7269 28.9842C11.6122 32.1685 12.8936 34.9452 15.3349 36.8034C17.8867 38.7448 21.3714 39.4201 24.2127 38.5228L24.4681 38.4424L24.4787 38.1749C24.5977 35.1981 23.0309 32.0128 20.4869 30.0612C18.0529 28.1933 15.0368 27.6868 11.9943 28.634ZM36.108 36.1966C33.9652 37.8274 31.1203 38.4951 28.6596 37.9875L30.1474 36.851C31.5274 37.4726 33.3952 36.6498 34.1643 36.2483C34.351 36.1507 34.4236 35.9208 34.326 35.734C34.2283 35.5477 33.9983 35.4751 33.8122 35.5727C32.685 36.161 31.6465 36.4063 30.8918 36.2814L33.1568 34.5508C34.5374 35.1731 36.4046 34.3503 37.1742 33.9488C37.3604 33.8512 37.4329 33.6213 37.3358 33.4345C37.2382 33.2477 37.0083 33.1756 36.8215 33.2731C35.6948 33.8614 34.6564 34.1068 33.9018 33.9819L35.1836 33.0021C35.3512 32.8746 35.3831 32.6355 35.2551 32.4678C35.2316 32.4374 35.2034 32.413 35.174 32.3916C35.1221 31.8024 35.3934 31.1733 35.6523 30.7224C35.7567 30.5398 35.6937 30.3071 35.5113 30.2025C35.3287 30.0974 35.0955 30.161 34.991 30.3434C34.5118 31.1791 34.325 31.9423 34.4334 32.6169L32.1653 34.3496C32.2602 33.3569 33.0911 32.3094 33.4995 31.8493C33.6391 31.6915 33.6248 31.4508 33.4674 31.3115C33.31 31.1716 33.0692 31.186 32.9293 31.3434C32.2537 32.1051 31.2024 33.5427 31.4234 34.9164L28.1964 37.3823C28.3538 34.8747 29.7455 32.3046 31.8818 30.6657C34.0442 29.0065 36.7125 28.52 39.4225 29.284C39.4475 32.0991 38.2772 34.546 36.108 36.1966ZM40.168 28.7141L39.9103 28.634C36.8678 27.6868 33.8522 28.1933 31.4182 30.0612C28.8735 32.0128 27.3067 35.1981 27.4257 38.1749L27.4364 38.4424L27.6921 38.5228C30.5333 39.4201 34.0181 38.7448 36.5695 36.8034C39.011 34.9452 40.2924 32.1685 40.1775 28.9842L40.168 28.7141ZM26.4839 49.9367V33.5385C29.7536 31.1151 31.8589 26.7823 31.8681 22.4116C31.876 18.1338 29.8843 14.3633 26.2598 11.7949L25.9523 11.5773L25.645 11.7949C22.0201 14.3633 20.0285 18.1338 20.0368 22.4116C20.0456 26.7823 22.151 31.1151 25.4209 33.5385V49.9367C12.2437 49.653 1.61127 38.8464 1.61127 25.6024C1.61127 12.1808 12.5305 1.26152 25.9523 1.26152C39.3739 1.26152 50.2932 12.1808 50.2932 25.6024C50.2932 38.8464 39.661 49.653 26.4839 49.9367ZM28.7839 23.9922C28.4947 23.9422 28.2198 24.1358 28.1697 24.4252C27.8677 26.1713 27.2604 27.53 26.4839 28.26V24.2857C28.3411 23.283 29.0107 20.5176 29.2168 19.3254C29.2669 19.0362 29.0732 18.7613 28.7839 18.7112C28.4947 18.661 28.2198 18.8547 28.1697 19.144C27.8677 20.8901 27.2604 22.2488 26.4839 22.9795V20.7296C26.4839 20.4361 26.2458 20.198 25.9523 20.198C25.8985 20.198 25.8475 20.2086 25.7985 20.2236C25.1024 19.7823 24.635 18.9487 24.3543 18.2806C24.2406 18.01 23.9292 17.8824 23.6586 17.996C23.388 18.1098 23.2609 18.4215 23.3745 18.6921C23.8948 19.9305 24.5821 20.7833 25.4209 21.2343V25.2144C24.4018 24.2682 23.9444 22.4613 23.7801 21.6191C23.7239 21.3314 23.4447 21.1432 23.1568 21.1996C22.869 21.2557 22.6809 21.5349 22.7372 21.8225C23.0088 23.2159 23.712 25.5976 25.4209 26.5154V32.1781C22.7758 29.8813 21.107 26.1638 21.0995 22.4096C21.092 18.6093 22.8118 15.2414 25.9523 12.8858C29.093 15.2414 30.8128 18.6093 30.8049 22.4096C30.7974 26.1638 29.1287 29.8813 26.4839 32.1781V29.5669C28.3411 28.5642 29.0107 25.7987 29.2168 24.6065C29.2669 24.3174 29.0732 24.0424 28.7839 23.9922ZM43.9155 7.6392C39.1173 2.84104 32.7378 0.198364 25.9523 0.198364C19.1667 0.198364 12.7873 2.84104 7.98916 7.6392C3.19099 12.4374 0.548529 18.8169 0.548529 25.6024C0.548529 32.3878 3.19099 38.7674 7.98916 43.5655C12.7873 48.3637 19.1667 51.0064 25.9523 51.0064C32.7378 51.0064 39.1173 48.3637 43.9155 43.5655C48.7136 38.7674 51.3563 32.3878 51.3563 25.6024C51.3563 18.8169 48.7136 12.4374 43.9155 7.6392Z" fill="#4D1A10"/>
</g>
</g>
<defs>
<clipPath id="clip0_1_12">
<rect width="50.81" height="50.81" fill="white" transform="translate(0.549988 0.200012)"/>
</clipPath>
</defs>
</svg>
